name rise45.9887peak57.8056fall74.9286.mot
datacolumns 19
datarows 24
range 9.45496900000000 9.49329800000000
endheader
time	ground_force1_vx	ground_force1_vy	ground_force1_vz	ground_force1_px	ground_force1_py	ground_force1_pz	ground_force2_vx	ground_force2_vy	ground_force2_vz	ground_force2_px	ground_force2_py	ground_force2_pz	ground_torque1_x	ground_torque1_y	ground_torque1_z	ground_torque2_x	ground_torque2_y	ground_torque2_z	
9.45496900000000	13.21796900000000	710.04881499999999	38.71656100000000	0.24854700000000	0.00000000000000	0.08646100000000	0.00000000000000	0.00000000000000	0.00000000000000	0.00000000000000	0.00000000000000	0.00000000000000	0.00000000000000	17.70241900000000	0.00000000000000	0.00000000000000	0.00000000000000	0.00000000000000	
9.45662900000000	12.79953400000000	710.68209500000000	38.70792600000000	0.24764000000000	0.00000000000000	0.08646400000000	0.00000000000000	0.00000000000000	0.00000000000000	0.00000000000000	0.00000000000000	0.00000000000000	0.00000000000000	17.71808200000000	0.00000000000000	0.00000000000000	0.00000000000000	0.00000000000000	
9.45830100000000	12.36779900000000	711.33062700000005	38.69931000000000	0.24670900000000	0.00000000000000	0.08646800000000	0.00000000000000	0.00000000000000	0.00000000000000	0.00000000000000	0.00000000000000	0.00000000000000	0.00000000000000	17.73536000000000	0.00000000000000	0.00000000000000	0.00000000000000	0.00000000000000	
9.45996600000000	11.92272100000000	711.99436900000001	38.69066200000000	0.24575500000000	0.00000000000000	0.08647300000000	0.00000000000000	0.00000000000000	0.00000000000000	0.00000000000000	0.00000000000000	0.00000000000000	0.00000000000000	17.75422900000000	0.00000000000000	0.00000000000000	0.00000000000000	0.00000000000000	
9.46163500000000	11.46429600000000	712.67335800000001	38.68193900000000	0.24477700000000	0.00000000000000	0.08647900000000	0.00000000000000	0.00000000000000	0.00000000000000	0.00000000000000	0.00000000000000	0.00000000000000	0.00000000000000	17.77466400000000	0.00000000000000	0.00000000000000	0.00000000000000	0.00000000000000	
9.46329600000000	10.99256500000000	713.36770400000000	38.67310500000000	0.24377500000000	0.00000000000000	0.08648600000000	0.00000000000000	0.00000000000000	0.00000000000000	0.00000000000000	0.00000000000000	0.00000000000000	0.00000000000000	17.79664400000000	0.00000000000000	0.00000000000000	0.00000000000000	0.00000000000000	
9.46496700000000	10.50761100000000	714.07759399999998	38.66413300000000	0.24275100000000	0.00000000000000	0.08649400000000	0.00000000000000	0.00000000000000	0.00000000000000	0.00000000000000	0.00000000000000	0.00000000000000	0.00000000000000	17.82014700000000	0.00000000000000	0.00000000000000	0.00000000000000	0.00000000000000	
9.46663700000000	10.00955500000000	714.80328099999997	38.65500100000000	0.24170400000000	0.00000000000000	0.08650300000000	0.00000000000000	0.00000000000000	0.00000000000000	0.00000000000000	0.00000000000000	0.00000000000000	0.00000000000000	17.84515300000000	0.00000000000000	0.00000000000000	0.00000000000000	0.00000000000000	
9.46829900000000	9.49856400000000	715.54508399999997	38.64570100000000	0.24063700000000	0.00000000000000	0.08651300000000	0.00000000000000	0.00000000000000	0.00000000000000	0.00000000000000	0.00000000000000	0.00000000000000	0.00000000000000	17.87164200000000	0.00000000000000	0.00000000000000	0.00000000000000	0.00000000000000	
9.46997000000000	8.97484000000000	716.30338600000005	38.63622900000000	0.23954900000000	0.00000000000000	0.08652500000000	0.00000000000000	0.00000000000000	0.00000000000000	0.00000000000000	0.00000000000000	0.00000000000000	0.00000000000000	17.89959500000000	0.00000000000000	0.00000000000000	0.00000000000000	0.00000000000000	
9.47163000000000	8.43862500000000	717.07862100000000	38.62659200000000	0.23844200000000	0.00000000000000	0.08653700000000	0.00000000000000	0.00000000000000	0.00000000000000	0.00000000000000	0.00000000000000	0.00000000000000	0.00000000000000	17.92899500000000	0.00000000000000	0.00000000000000	0.00000000000000	0.00000000000000	
9.47329600000000	7.89019800000000	717.87128199999995	38.61680800000000	0.23731600000000	0.00000000000000	0.08655000000000	0.00000000000000	0.00000000000000	0.00000000000000	0.00000000000000	0.00000000000000	0.00000000000000	0.00000000000000	17.95982400000000	0.00000000000000	0.00000000000000	0.00000000000000	0.00000000000000	
9.47496900000000	7.32987500000000	718.68190300000003	38.60690200000000	0.23617400000000	0.00000000000000	0.08656400000000	0.00000000000000	0.00000000000000	0.00000000000000	0.00000000000000	0.00000000000000	0.00000000000000	0.00000000000000	17.99206400000000	0.00000000000000	0.00000000000000	0.00000000000000	0.00000000000000	
9.47663100000000	6.75800500000000	719.51106400000003	38.59691000000000	0.23501600000000	0.00000000000000	0.08657900000000	0.00000000000000	0.00000000000000	0.00000000000000	0.00000000000000	0.00000000000000	0.00000000000000	0.00000000000000	18.02570000000000	0.00000000000000	0.00000000000000	0.00000000000000	0.00000000000000	
9.47829900000000	6.17497000000000	720.35937999999999	38.58688000000000	0.23384500000000	0.00000000000000	0.08659500000000	0.00000000000000	0.00000000000000	0.00000000000000	0.00000000000000	0.00000000000000	0.00000000000000	0.00000000000000	18.06071400000000	0.00000000000000	0.00000000000000	0.00000000000000	0.00000000000000	
9.47996600000000	5.58118200000000	721.22749799999997	38.57686700000000	0.23266000000000	0.00000000000000	0.08661100000000	0.00000000000000	0.00000000000000	0.00000000000000	0.00000000000000	0.00000000000000	0.00000000000000	0.00000000000000	18.09709000000000	0.00000000000000	0.00000000000000	0.00000000000000	0.00000000000000	
9.48163000000000	4.97708300000000	722.11608999999999	38.56693900000000	0.23146500000000	0.00000000000000	0.08662900000000	0.00000000000000	0.00000000000000	0.00000000000000	0.00000000000000	0.00000000000000	0.00000000000000	0.00000000000000	18.13481200000000	0.00000000000000	0.00000000000000	0.00000000000000	0.00000000000000	
9.48330400000000	4.36314300000000	723.02584899999999	38.55717500000000	0.23026000000000	0.00000000000000	0.08664600000000	0.00000000000000	0.00000000000000	0.00000000000000	0.00000000000000	0.00000000000000	0.00000000000000	0.00000000000000	18.17386100000000	0.00000000000000	0.00000000000000	0.00000000000000	0.00000000000000	
9.48497300000000	3.73985500000000	723.95748100000003	38.54766400000000	0.22904800000000	0.00000000000000	0.08666500000000	0.00000000000000	0.00000000000000	0.00000000000000	0.00000000000000	0.00000000000000	0.00000000000000	0.00000000000000	18.21422100000000	0.00000000000000	0.00000000000000	0.00000000000000	0.00000000000000	
9.48663700000000	3.10773800000000	724.91170000000000	38.53850800000000	0.22782900000000	0.00000000000000	0.08668300000000	0.00000000000000	0.00000000000000	0.00000000000000	0.00000000000000	0.00000000000000	0.00000000000000	0.00000000000000	18.25587300000000	0.00000000000000	0.00000000000000	0.00000000000000	0.00000000000000	
9.48830100000000	2.46732900000000	725.88922100000002	38.52981800000000	0.22660600000000	0.00000000000000	0.08670200000000	0.00000000000000	0.00000000000000	0.00000000000000	0.00000000000000	0.00000000000000	0.00000000000000	0.00000000000000	18.29879800000000	0.00000000000000	0.00000000000000	0.00000000000000	0.00000000000000	
9.48996600000000	1.81918600000000	726.89075900000000	38.52171900000000	0.22538100000000	0.00000000000000	0.08672200000000	0.00000000000000	0.00000000000000	0.00000000000000	0.00000000000000	0.00000000000000	0.00000000000000	0.00000000000000	18.34297600000000	0.00000000000000	0.00000000000000	0.00000000000000	0.00000000000000	
9.49163100000000	1.16388300000000	727.91701399999999	38.51434600000000	0.22415500000000	0.00000000000000	0.08674100000000	0.00000000000000	0.00000000000000	0.00000000000000	0.00000000000000	0.00000000000000	0.00000000000000	0.00000000000000	18.38838600000000	0.00000000000000	0.00000000000000	0.00000000000000	0.00000000000000	
9.49329800000000	0.50200700000000	728.96867399999996	38.50784500000000	0.22292900000000	0.00000000000000	0.08676100000000	0.00000000000000	0.00000000000000	0.00000000000000	0.00000000000000	0.00000000000000	0.00000000000000	0.00000000000000	18.43500500000000	0.00000000000000	0.00000000000000	0.00000000000000	0.00000000000000	
